<svg height="150" viewBox="0 0 64 64" width="150" fill="white"
	xmlns="http://www.w3.org/2000/svg">
	<g id="Computer-Engineer-Gear-Monitor-Construction">
		<path d="m21.34 30.45.37.73 1.58.53.24-.94-1.5-.66z"/>
		<circle cx="48" cy="18" r="4"/>
		<path d="m38.714 25.685 1.6 1.6 1.991-1.492a1 1 0 0 1 1.11-.06 8.859 8.859 0 0 0 2.356.975 1 1 0 0 1 .744.828l.352 2.464h2.266l.351-2.463a1 1 0 0 1 .744-.828 8.859 8.859 0 0 0 2.356-.975 1 1 0 0 1 1.11.06l1.991 1.492 1.6-1.6-1.491-1.986a1 1 0 0 1 -.061-1.111 8.923 8.923 0 0 0 .977-2.357 1 1 0 0 1 .827-.742l2.463-.357v-2.266l-2.463-.352a1 1 0 0 1 -.827-.742 8.923 8.923 0 0 0 -.977-2.357 1 1 0 0 1 .061-1.111l1.492-1.99-1.6-1.6-1.991 1.492a1 1 0 0 1 -1.11.06 8.859 8.859 0 0 0 -2.356-.975 1 1 0 0 1 -.744-.828l-.352-2.464h-2.266l-.351 2.463a1 1 0 0 1 -.744.828 8.859 8.859 0 0 0 -2.356.975 1 1 0 0 1 -1.11-.06l-1.991-1.492-1.6 1.6 1.492 1.99a1 1 0 0 1 .061 1.111 8.923 8.923 0 0 0 -.977 2.357 1 1 0 0 1 -.827.742l-2.464.353v2.266l2.463.352a1 1 0 0 1 .827.742 8.923 8.923 0 0 0 .977 2.357 1 1 0 0 1 -.061 1.111zm9.286-13.685a6 6 0 1 1 -6 6 6.006 6.006 0 0 1 6-6z"/>
		<path d="m19 26a6 6 0 0 0 6-6v-4h-12v4a6 6 0 0 0 6 6zm2-8h2v2h-2zm-6 0h2v2h-2z"/>
		<path d="m12 14h14a1 1 0 0 0 0-2h-14a1 1 0 0 0 0 2z"/>
		<path d="m22 6.43v3.57h2.9a4.913 4.913 0 0 0 -1.36-2.53 5.106 5.106 0 0 0 -1.54-1.04z"/>
		<path d="m28 19a1 1 0 0 0 -1-1v2a1 1 0 0 0 1-1z"/>
		<path d="m18 4h2v6h-2z"/>
		<path d="m22.8 40h7.2v-3.1a5 5 0 0 0 -2.97-4.57l-1.65-.73-.41 1.64a1.017 1.017 0 0 1 -.49.64 1 1 0 0 1 -.48.12 1.185 1.185 0 0 1 -.32-.05l-2.4-.8z"/>
		<path d="m51.37 28.46-.38 2.68a1 1 0 0 1 -.99.86h-4a1 1 0 0 1 -.99-.86l-.38-2.68a10.291 10.291 0 0 1 -1.64-.68l-2.17 1.63a1.006 1.006 0 0 1 -1.31-.1l-2.82-2.82a.994.994 0 0 1 -.1-1.31l1.63-2.17a10.291 10.291 0 0 1 -.68-1.64l-2.68-.38a1 1 0 0 1 -.86-.99v-4a1 1 0 0 1 .86-.99l2.68-.38c.07-.21.14-.42.23-.63h-8.95a3.01 3.01 0 0 1 -1.82 1.82v.18a3 3 0 0 1 0 6h-.26a8.06 8.06 0 0 1 -3.74 4.92v1.43l4.85 2.16a7 7 0 0 1 4.15 6.39v3.1h20v-11.77c-.21.09-.42.16-.63.23zm-7.37 9.54h-8v-2h8zm0-4h-8v-2h8z"/>
		<path d="m16 10v-3.57a4.961 4.961 0 0 0 -2.9 3.57z"/>
		<path d="m21.88 50-.75 6h13.74l-.75-6z"/>
		<path d="m4 45a3.009 3.009 0 0 0 3 3h42a3.009 3.009 0 0 0 3-3v-3h-48zm42-1h2v2h-2z"/>
		<path d="m17 59a1 1 0 0 0 1 1h20a1 1 0 0 0 0-2h-20a1 1 0 0 0 -1 1z"/>
		<path d="m11 20v-2a1 1 0 0 0 0 2z"/>
		<path d="m15 26.92v1.43l-4.85 2.16a7 7 0 0 0 -4.15 6.39v3.1h-2v-23a3.009 3.009 0 0 1 3-3h2.18a3.01 3.01 0 0 0 1.82 1.82v.18a3 3 0 0 0 0 6h.26a8.06 8.06 0 0 0 3.74 4.92z"/>
		<path d="m19.78 31.8-.4-.8h-.76l-.4.8.78.79z"/>
		<path d="m14 34a1 1 0 0 1 -.48-.12 1.017 1.017 0 0 1 -.49-.64l-.41-1.64-1.65.73a5 5 0 0 0 -2.97 4.57v3.1h7.2l1.52-6.85-2.4.8a1.185 1.185 0 0 1 -.32.05z"/>
		<path d="m20.75 40-1.16-5.22a.9.9 0 0 1 -1.18 0l-1.16 5.22z"/>
		<path d="m21 27.74a7.822 7.822 0 0 1 -4 0v.64l1.24.62h1.52l1.24-.62z"/>
		<path d="m14.71 31.71 1.58-.53.37-.73-.69-.34-1.5.66z"/>
	</g>
</svg>